<svg width="76" height="19" viewBox="0 0 76 19" fill="none" xmlns="http://www.w3.org/2000/svg">
<path d="M75.2055 1.63557C74.1915 2.90155 73.3534 3.80416 72.2515 4.81812C67.422 9.27839 61.6312 12.1503 56.198 12.7774C54.8793 12.9298 52.8455 12.9005 51.603 12.7071L51.3803 12.6719L52.0836 12.2441C53.4609 11.4118 54.1408 10.7202 54.1408 10.1575C54.1408 10.011 54.0822 9.91138 53.8888 9.72383C53.4316 9.29011 52.3239 9.06739 50.9172 9.13186C49.6864 9.18461 49.0241 9.30183 48.4204 9.56558C47.4533 9.99344 45.8181 10.5327 44.4994 10.8609C41.7447 11.5466 38.7145 11.91 34.4183 12.0683C33.4982 12.1034 33.3633 12.0976 32.6893 11.9569C29.7881 11.3766 27.9946 11.7576 26.4121 13.3108L25.9022 13.809L25.7264 13.7152C25.6326 13.6683 25.4744 13.557 25.3747 13.4749L25.1989 13.3284L24.8883 13.6097L24.5776 13.8969L24.8003 14.3717C25.3337 15.5146 25.3689 16.4816 24.9117 17.3198C24.6948 17.7183 24.1673 18.1989 23.6867 18.4451C23.2354 18.6737 22.6259 18.8788 22.5731 18.8202C22.5321 18.7792 22.6669 18.574 23.1065 18.0172C23.2706 17.8062 23.4464 17.5718 23.4933 17.4897C23.6457 17.2494 23.7805 16.7805 23.7805 16.5285L23.7747 16.2882L23.6516 16.464C23.3585 16.8626 22.7255 17.4663 22.3211 17.7359C21.4654 18.2986 20.4925 18.4275 19.5488 18.1169C18.4645 17.7476 17.5092 17.8707 16.0322 18.5623C15.7157 18.7088 15.4578 18.8202 15.4578 18.8026C15.4578 18.6854 16.1318 17.6363 16.3839 17.3667C16.8293 16.8802 17.2161 16.7102 17.8608 16.7044C18.3942 16.6985 18.6873 16.763 19.3847 17.0384C19.7481 17.1791 19.8829 17.2025 20.1642 17.1791C21.0668 17.097 21.9812 16.2413 22.1746 15.3036C22.327 14.5768 22.0632 14.0552 21.3482 13.6742C21.1255 13.5511 20.932 13.4222 20.9203 13.3929C20.9086 13.3577 20.9672 13.2346 21.0493 13.1115C21.1665 12.9416 21.1841 12.8771 21.1255 12.8302C21.0903 12.795 20.891 12.6251 20.6859 12.4551C20.4866 12.2851 20.2111 11.9745 20.0763 11.7693L19.8302 11.3942H19.5137C19.3378 11.3942 18.8338 11.3415 18.3942 11.277C17.4799 11.1481 15.7684 11.0133 13.9105 10.9253C11.8064 10.8257 9.81361 10.984 9.27439 11.3063C8.85239 11.5525 8.44212 12.2148 7.99082 13.3929C7.78568 13.9203 7.75051 13.9731 7.44574 14.2017C6.98857 14.5358 6.57244 14.653 6.10942 14.5709C5.916 14.5299 5.57606 14.4127 5.34748 14.3013C5.05442 14.1607 4.81998 14.0903 4.51521 14.0669C3.15544 13.9379 1.91876 13.1994 1.18612 12.0741C0.846183 11.5525 0.787573 11.3298 0.781712 10.6323C0.775851 10.1107 0.799295 9.96999 0.910655 9.72383C1.0689 9.37217 1.32679 9.0967 1.67259 8.89156L1.93048 8.73917L2.69828 8.81537C3.67708 8.915 4.98409 8.915 5.55261 8.82123C5.95703 8.74503 6.01564 8.71573 6.42591 8.37579C7.46332 7.49663 8.65898 6.99258 10.0774 6.81674C10.6986 6.74055 12.4804 6.76986 18.4469 6.93397L19.9415 6.98085L20.2815 6.67022C20.6097 6.36544 21.1196 6.03722 21.6764 5.76761C21.9401 5.63867 21.9577 5.61523 22.0749 5.21667C22.2215 4.73021 22.3739 3.75727 22.3739 3.32941C22.3739 3.1653 22.3446 2.81364 22.3094 2.54989C22.2742 2.28614 22.2508 2.05756 22.2625 2.04584C22.2742 2.03998 22.5497 2.08101 22.8721 2.14548C23.2647 2.22167 23.5637 2.24512 23.7805 2.22167C24.0618 2.19237 24.138 2.15134 24.4838 1.85242C25.6561 0.820878 26.5 0.439909 27.473 0.516103C28.1294 0.562992 28.3463 0.656769 28.5749 0.990849C28.9382 1.53007 29.0203 2.14548 28.7741 2.48542C28.61 2.714 28.1998 2.89569 27.8422 2.89569C27.5199 2.89569 27.01 2.73158 26.7755 2.54989L26.6407 2.44439L27.0627 2.40336C27.5316 2.36234 27.8422 2.24512 27.9712 2.05756C28.0825 1.89931 28.0122 1.81726 27.6723 1.68832C27.0744 1.45973 26.1718 1.85242 24.9527 2.88397L24.7535 3.05394L25.3044 3.08325C26.1425 3.13014 26.459 3.2708 27.0158 3.84519C27.4613 4.29649 27.5785 4.47818 27.3733 4.39026C26.7814 4.1441 26.4766 4.06791 26.0077 4.06791C25.533 4.06791 24.7066 4.23788 24.5835 4.36096C24.478 4.45474 24.8003 4.89432 25.0758 5.04084C25.2106 5.10531 25.3044 5.10531 25.7498 5.02326C26.078 4.96465 26.5997 4.92362 27.1506 4.92362C27.9184 4.91776 28.0884 4.93534 28.4694 5.05843C28.7097 5.12876 28.991 5.23426 29.0848 5.28115C29.3954 5.43939 29.8467 5.8145 30.046 6.08411C30.2218 6.31855 30.2804 6.35372 30.6321 6.43577C34.1956 7.26218 38.0874 6.9281 42.9696 5.3632L43.7023 5.12876L45.3609 5.19323C48.2094 5.29873 52.3708 5.21081 55.4595 4.97637C62.1822 4.4606 68.7114 3.14772 74.6135 1.10807C75.223 0.897072 75.7271 0.727101 75.7447 0.727101C75.8678 0.727101 75.6743 1.0436 75.2055 1.63557ZM73.7929 1.6004L72.2573 2.11031L71.3606 2.98361C69.8191 4.4899 68.2308 5.69728 66.1853 6.92224C63.6064 8.46956 60.7755 9.70039 57.7805 10.5795C57.3468 10.7026 56.9776 10.8081 56.9541 10.8081C56.9307 10.8081 56.9131 10.5268 56.9131 10.1751C56.919 9.39561 56.79 9.02636 56.3622 8.55748C55.7174 7.84829 54.6683 7.42629 52.9979 7.19185C52.1012 7.06877 49.4344 7.05119 47.9867 7.16841L46.961 7.2446L46.0232 7.61971C43.4209 8.64539 41.3813 9.21978 39.1951 9.54214C37.4426 9.80002 36.0301 9.84691 34.0432 9.72969C32.2556 9.62419 30.5852 9.60661 29.7705 9.70039C28.1587 9.87036 26.5469 10.4272 25.0055 11.3415L24.6186 11.5759L24.6714 11.8748C24.7886 12.502 25.2282 13.1819 25.7029 13.4573L25.8788 13.5628L26.1191 13.2991C26.7462 12.6192 27.5199 12.0976 28.3053 11.8221C28.9558 11.5935 29.5361 11.5115 30.427 11.5056C31.312 11.5056 31.8395 11.5642 32.7772 11.7576C33.3047 11.869 33.4864 11.8748 34.6059 11.8397C40.297 11.6697 44.6166 10.9078 48.1098 9.45422C48.9186 9.12014 49.364 9.02636 50.5363 8.93845C51.6381 8.85639 52.7459 8.95017 53.4199 9.19047C54.0353 9.40733 54.4339 9.88208 54.3459 10.2924C54.2053 10.9429 53.4199 11.7166 52.1129 12.4844C51.9312 12.5899 52.7517 12.6544 54.2873 12.6485C55.8933 12.6485 57.0889 12.502 58.6831 12.1269C64.5501 10.7437 70.9503 6.61747 74.8948 1.68245C75.1469 1.36596 75.3461 1.10807 75.3403 1.10221C75.3344 1.09635 74.6369 1.32493 73.7929 1.6004ZM29.3485 5.72072C29.1727 5.58592 28.8738 5.42181 28.6862 5.35148C28.3521 5.2284 28.3346 5.2284 28.1294 5.32217C27.766 5.498 26.9513 6.06653 26.5469 6.42991C25.3396 7.52593 24.73 8.5692 24.1673 10.5268C24.0501 10.9371 23.7571 11.3766 23.4933 11.5525C23.0713 11.8397 22.5262 11.6756 22.3152 11.2067C22.198 10.9429 22.1687 10.9605 22.116 11.3356C22.0808 11.5759 22.0925 11.617 22.2391 11.7576C22.7314 12.2148 23.2706 12.2089 24.0384 11.7459C24.3373 11.5642 24.3608 11.529 24.5425 11.0484C25.2692 9.10842 26.7755 7.33838 28.2642 6.67608C28.6276 6.51197 29.4892 6.30097 29.7764 6.29511H29.9463L29.8057 6.12514C29.7295 6.03722 29.5244 5.84967 29.3485 5.72072ZM28.5104 1.31321C28.2759 0.844322 28.1529 0.779851 27.4437 0.738823C26.4239 0.686074 25.8495 0.961544 24.4311 2.17478L24.1732 2.3975H23.5812C23.253 2.3975 22.8838 2.37406 22.7548 2.35062L22.5204 2.30373L22.5438 3.07153C22.5614 3.9331 22.4911 4.53679 22.2859 5.25184L22.1453 5.73831L22.2391 6.50025C22.327 7.2446 22.3739 9.20806 22.3211 10.1927C22.2977 10.6089 22.3152 10.7085 22.4442 10.9957C22.5849 11.2946 22.8134 11.5115 23.001 11.5115C23.0655 11.5115 23.294 10.6557 23.3761 10.1048C23.464 9.53042 23.4054 8.71573 23.2237 7.91862C22.8369 6.20133 23.0479 5.24012 23.9739 4.49576C24.3842 4.16754 24.73 4.02102 25.4099 3.88621C25.7616 3.82174 26.5059 3.83932 26.7403 3.92138C26.9396 3.98585 26.4766 3.61074 26.2129 3.48766C25.8319 3.30597 25.2809 3.22977 24.689 3.27666L24.1615 3.31769L24.5366 2.97775C26.207 1.44801 27.3323 1.06704 28.1939 1.74693C28.4225 1.92862 28.0474 2.43853 27.6195 2.52059C27.2854 2.5792 27.3851 2.66125 27.7953 2.66125C28.6686 2.66125 28.9324 2.1572 28.5104 1.31321ZM27.1272 5.13462C26.1601 5.15806 26.2363 5.11117 25.6267 6.03136C25.0934 6.82847 24.648 7.66074 24.3666 8.38751L24.1439 8.94431L24.0267 8.57506C23.716 7.61385 23.6985 6.84605 23.9739 6.27753C24.1205 5.97861 24.5073 5.56248 24.8238 5.35734L24.9644 5.26942L24.6714 4.97637C24.5131 4.81226 24.3725 4.64229 24.3549 4.5954C24.3315 4.52507 24.2787 4.53679 24.0853 4.6716C23.7747 4.89432 23.4582 5.35734 23.3351 5.79692C23.212 6.2365 23.2472 7.09807 23.423 7.81899C23.6867 8.915 23.6926 10.0227 23.4289 10.9605C23.3702 11.1832 23.3292 11.3766 23.3409 11.3884C23.382 11.4294 23.7278 11.0308 23.8391 10.814C23.8919 10.6968 23.9974 10.3803 24.0677 10.1165C24.5483 8.26443 25.6502 6.69952 27.2151 5.65039C27.555 5.42181 27.854 5.24012 27.8891 5.24012C27.9184 5.24012 27.9419 5.21081 27.9419 5.17565C27.9419 5.13462 27.684 5.1229 27.1272 5.13462ZM25.5271 5.29287C24.9293 5.42181 24.2846 5.98447 24.1029 6.53541C23.9915 6.86949 23.9798 7.52593 24.0794 7.97723L24.1498 8.28201L24.4838 7.59627C24.8121 6.91638 25.322 6.04308 25.6912 5.53317C25.7967 5.38664 25.8729 5.26356 25.8612 5.25184C25.8495 5.24012 25.7029 5.2577 25.5271 5.29287ZM24.9234 15.3329C24.7417 14.5651 24.2084 13.6273 23.4992 12.8185C23.1299 12.3965 23.0655 12.3496 22.7783 12.2851C22.6024 12.2441 22.368 12.1327 22.2449 12.0389C22.0046 11.8455 21.9636 11.828 21.9636 11.9335C21.9636 12.08 21.6823 12.6016 21.442 12.9181C21.313 13.0939 21.2016 13.2639 21.2016 13.2991C21.2016 13.3284 21.3013 13.4046 21.4244 13.4573C21.7526 13.6097 22.0632 13.891 22.2449 14.1958C22.3856 14.4361 22.4032 14.5299 22.4032 14.9695C22.4032 15.4032 22.3797 15.5146 22.2215 15.8486C21.8053 16.7278 20.9027 17.3901 20.0998 17.396C19.7774 17.4018 19.6016 17.3608 19.121 17.1732C17.7729 16.6575 16.882 16.886 16.208 17.9235C16.0849 18.1169 15.997 18.281 16.0087 18.2927C16.0205 18.3044 16.2491 18.2224 16.5187 18.1169C17.2865 17.8004 17.7436 17.7066 18.4469 17.7125C18.951 17.7183 19.1444 17.7476 19.5019 17.8707C20.387 18.1813 21.2778 18.111 22.0281 17.6773C22.4852 17.4077 23.2472 16.6692 23.6457 16.0948C23.9798 15.6142 24.015 15.6318 24.015 16.2882C24.015 16.9798 23.804 17.519 23.2882 18.1403C23.1475 18.3103 23.0362 18.4627 23.0479 18.4803C23.1124 18.5389 23.9622 18.0641 24.2377 17.8121C24.9293 17.185 25.1637 16.3468 24.9234 15.3329ZM24.8121 12.8361C24.7007 12.6544 24.5659 12.3379 24.5131 12.1327L24.4135 11.7635L24.0794 11.9628C23.8977 12.0683 23.6574 12.1913 23.5343 12.2265L23.3234 12.291L23.6867 12.7071C23.886 12.9357 24.1322 13.2463 24.2377 13.3987C24.3432 13.557 24.4487 13.68 24.4721 13.68C24.5014 13.68 25.0113 13.2053 25.0113 13.176C25.0113 13.1701 24.9234 13.0177 24.8121 12.8361ZM21.8053 9.34872C21.6178 9.30769 21.4302 9.26081 21.3951 9.24322C21.3365 9.22564 21.3189 9.32528 21.3189 9.64764C21.3189 10.3568 21.0961 10.9078 20.6155 11.406C20.4514 11.5759 20.3225 11.7166 20.3225 11.7283C20.3225 11.8104 20.6331 12.1386 20.9555 12.3965C21.3892 12.7481 21.3775 12.754 21.6471 12.1855C21.8639 11.7166 22.116 10.433 22.1336 9.69452L22.1394 9.42492L21.8053 9.34872ZM22.1043 7.36182L22.0632 6.82847L21.7936 6.96327C21.6471 7.03946 21.3775 7.1391 21.1899 7.18013L20.8617 7.25632L20.9789 7.55524C21.0434 7.71935 21.102 8.00654 21.102 8.19995C21.1137 8.6747 20.9731 8.90914 20.5511 9.12014C20.258 9.27253 20.2111 9.27839 19.9767 9.21392C19.6309 9.126 19.3085 8.79778 19.1796 8.40509C19.0799 8.10618 19.0799 8.10032 19.2089 7.96551C19.3437 7.81899 19.9122 7.60213 20.2346 7.57282C20.3577 7.5611 20.4104 7.57868 20.4104 7.64315C20.4104 7.6959 20.2873 7.76037 20.0587 7.81899C19.6367 7.93621 19.3261 8.08859 19.3261 8.18823C19.3261 8.2234 19.3906 8.37579 19.4609 8.52231C19.5606 8.72159 19.6602 8.82123 19.8712 8.92673C20.217 9.0967 20.3811 9.06153 20.6859 8.76262C20.8793 8.5692 20.9086 8.49887 20.9086 8.28201C20.9086 8.06515 20.7562 7.53179 20.5921 7.17427C20.5628 7.09807 20.6273 7.06877 20.9438 7.01602C21.1548 6.98085 21.483 6.87535 21.6647 6.78158L21.9929 6.61747L21.9753 6.2658C21.9636 6.07239 21.946 5.90242 21.9343 5.8907C21.8698 5.83209 20.7386 6.53541 20.4104 6.83433L20.0353 7.18013L19.1503 7.16255C18.5818 7.15082 18.277 7.16841 18.2946 7.20357C18.359 7.3501 18.6169 8.15893 18.6462 8.29373C18.6931 8.51645 19.3496 9.10256 19.8243 9.35458C20.1408 9.51869 20.9731 9.81175 21.1313 9.81175C21.1489 9.81175 21.1372 9.58316 21.1137 9.30769L21.0727 8.80364L21.3306 8.95603C21.4771 9.03809 21.7174 9.126 21.8639 9.14359L22.1394 9.18461V8.5399C22.1394 8.18237 22.1218 7.65488 22.1043 7.36182ZM20.6683 9.91725C20.1291 9.7883 19.4902 9.46594 19.1092 9.13772C18.9451 8.9912 18.7986 8.87398 18.7869 8.87398C18.781 8.87398 18.7634 9.15531 18.7576 9.50697C18.7517 9.92311 18.7107 10.2865 18.6286 10.5971C18.5583 10.855 18.5114 11.0719 18.5231 11.0836C18.5349 11.0895 18.8748 11.1305 19.2792 11.1657C19.9591 11.2301 20.0236 11.2477 20.0939 11.3708C20.1642 11.5056 20.1642 11.5056 20.3225 11.3942C20.5511 11.2301 20.7914 10.896 20.9496 10.5209C21.1489 10.0345 21.143 10.0286 20.6683 9.91725ZM17.7964 7.84243L17.0755 7.12152L16.4425 7.10394C16.0967 7.09221 15.8095 7.09807 15.8095 7.11566C15.8095 7.14496 16.5597 7.88932 17.9136 9.19633L18.5759 9.84105L18.5466 9.2022L18.5114 8.55748L17.7964 7.84243ZM16.9758 8.59265L15.4461 7.08635L14.6607 7.05705C14.227 7.03946 13.8812 7.04533 13.887 7.06291C13.8988 7.08049 14.8307 7.91276 15.956 8.90328C17.0872 9.8938 18.066 10.7612 18.1363 10.8257C18.2125 10.8902 18.2887 10.9312 18.3063 10.9136C18.3473 10.8667 18.4938 10.3451 18.4997 10.2044C18.5056 10.1458 17.896 9.50111 16.9758 8.59265ZM18.2184 7.61971C18.1187 7.36768 18.0308 7.15082 18.0191 7.13324C18.0015 7.12152 17.855 7.11566 17.6909 7.12738L17.3861 7.14496L17.8901 7.64315C18.1656 7.91276 18.3883 8.12376 18.3883 8.11204C18.3883 8.09446 18.3121 7.8776 18.2184 7.61971ZM15.7274 8.98534C14.5435 7.94207 13.5295 7.06291 13.4885 7.03946C13.4416 7.01602 13.2072 6.99844 12.961 7.01016L12.5097 7.02774L14.5728 8.94431C16.8469 11.0484 16.6007 10.8843 17.5385 10.9547C17.8257 10.9781 17.9839 10.9722 17.9488 10.9429C17.9195 10.9078 16.9172 10.0286 15.7274 8.98534ZM14.227 8.90914L12.1698 7.01016L11.7653 6.98671C11.5368 6.97499 11.3551 6.98085 11.3551 6.99844C11.3551 7.01602 12.1053 7.86587 13.0196 8.8857L14.6841 10.7319L15.2585 10.773C15.5809 10.7964 15.9384 10.8257 16.0615 10.8433C16.1787 10.8609 16.2784 10.8609 16.2784 10.8492C16.2784 10.8316 15.3523 9.95827 14.227 8.90914ZM12.6797 8.82709L11.0093 6.96327L10.5814 6.98671C10.347 6.99844 10.0656 7.02774 9.96013 7.05119L9.76672 7.08635L11.4547 8.87398L13.1368 10.6616L13.7405 10.6909C14.0746 10.7085 14.3442 10.7143 14.3442 10.7026C14.3442 10.6909 13.594 9.84691 12.6797 8.82709ZM12.3046 10.0814C12.0174 9.7883 11.273 9.00878 10.6517 8.34648C9.70225 7.34424 9.49711 7.14496 9.36817 7.15669C9.122 7.18013 8.41281 7.40871 8.43626 7.46732C8.44798 7.49663 9.22164 8.22926 10.1535 9.10256L11.8533 10.6909H12.3397C12.6035 10.6909 12.8203 10.6733 12.8203 10.6557C12.8203 10.6323 12.5859 10.3744 12.3046 10.0814ZM10.1242 9.37217C9.36817 8.66884 8.65312 8.00068 8.53589 7.88932L8.31904 7.69004L8.16665 8.02998L8.0084 8.36993L9.2275 9.55972L10.4466 10.7437H10.8041C11.1206 10.7495 11.5661 10.6968 11.5192 10.6616C11.5075 10.6557 10.8803 10.0755 10.1242 9.37217ZM9.03995 9.66522L7.89704 8.5692L7.7681 8.73331C7.69776 8.82709 7.44574 9.0967 7.2113 9.337C6.80688 9.74727 6.7893 9.77658 6.88308 9.88208C7.00616 10.0169 7.3754 10.1165 7.5864 10.0696C7.67432 10.052 7.87946 9.99344 8.03184 9.94655C8.19009 9.89966 8.33076 9.87036 8.34248 9.88794C8.38937 9.93483 8.19595 10.3568 8.05529 10.5034C7.74465 10.8374 7.14096 10.9957 6.66622 10.8667C6.10355 10.7143 5.79878 10.1458 5.86325 9.36631L5.89256 8.9912L5.55848 9.03809C5.37678 9.06153 4.68518 9.07911 4.01702 9.07911C2.66897 9.07911 2.70414 9.06153 3.132 9.46594C3.42505 9.74141 3.78257 10.011 3.99943 10.1224C4.15768 10.1986 4.21043 10.1986 4.52693 10.1165C5.01926 9.98758 5.14234 10.0345 5.45298 10.474C5.916 11.1188 6.34972 11.3415 7.23474 11.3825L7.82671 11.4118L8.05529 11.0484C8.26629 10.7085 8.42453 10.5913 8.42453 10.7788C8.42453 10.9019 7.45746 12.4844 7.16441 12.8419C6.58416 13.5511 6.10942 13.7562 5.5702 13.5335C5.30645 13.4222 5.31817 13.4163 5.31817 13.6273C5.31817 13.7269 5.29473 13.85 5.25956 13.9086C5.21267 14.0024 5.2537 14.0376 5.5702 14.1782C6.00978 14.3717 6.52555 14.4303 6.79516 14.3248C6.90066 14.2779 7.12338 14.1489 7.29335 14.0376C7.57468 13.8442 7.61571 13.7855 7.78568 13.3284C8.0377 12.6426 8.38351 11.9452 8.62967 11.6111C8.9872 11.1363 9.2275 11.0015 10.0539 10.8316C10.1242 10.8198 10.1829 10.7964 10.1829 10.7847C10.1829 10.773 9.66708 10.2689 9.03995 9.66522ZM7.91462 7.65488C7.52779 7.82485 6.66622 8.39923 6.49625 8.59851C6.43177 8.68056 6.43177 8.75089 6.49038 9.00292C6.61933 9.53628 6.63691 9.55386 6.90652 9.337C7.23474 9.07911 7.74465 8.42854 7.92048 8.04757C8.11976 7.62557 8.11976 7.56696 7.91462 7.65488ZM7.5864 10.263C6.90066 10.3158 6.58416 10.0696 6.36144 9.30769C6.29111 9.06739 6.21491 8.87398 6.19147 8.87398C6.12114 8.87398 6.08011 9.126 6.08011 9.55386C6.08011 10.2865 6.42005 10.6909 7.03546 10.6909C7.35196 10.6909 7.68604 10.5678 7.87946 10.3861C7.95565 10.3158 8.01426 10.2513 8.01426 10.2455C8.01426 10.2396 7.82085 10.2455 7.5864 10.263ZM6.7893 11.5642C6.13286 11.4587 5.60536 11.1188 5.24784 10.5678C5.03098 10.2279 4.96065 10.2162 4.28076 10.4037C3.48952 10.6206 2.91514 10.5502 2.34661 10.1575L2.07701 9.96999L1.96565 10.0989C1.90704 10.1751 1.83084 10.3392 1.78981 10.4682C1.7312 10.6733 1.73706 10.7319 1.8367 10.9195C2.05942 11.3356 2.6045 11.4353 3.2668 11.1891C3.93496 10.9429 4.43901 10.9371 4.95479 11.1598C5.27715 11.3063 5.44125 11.447 5.68156 11.7869C5.83395 12.0155 5.83981 12.0389 5.74017 12.0389C5.6757 12.0389 5.52331 11.9979 5.40023 11.9452C5.0134 11.7811 4.18699 11.5701 3.9291 11.5701C3.5833 11.5701 3.37816 11.7518 3.3723 12.0741C3.3723 12.3789 3.44263 12.8009 3.49538 12.8009C3.51883 12.8009 3.60088 12.6544 3.67121 12.4785C3.82946 12.0976 4.02874 11.9217 4.30421 11.9217C4.57382 11.9217 4.76137 12.0565 5.50573 12.7892C6.12114 13.3929 6.13286 13.4046 6.30283 13.3342C6.55486 13.2287 7.02374 12.7247 7.38713 12.1562L7.70949 11.658L7.43988 11.6404C7.28749 11.6345 6.99444 11.5994 6.7893 11.5642ZM4.50349 12.1855C4.34524 12.1093 4.2749 12.0976 4.16354 12.1503C3.99943 12.2265 3.71224 12.795 3.6126 13.2522C3.57158 13.4222 3.52469 13.5628 3.50124 13.5628C3.42505 13.5628 3.19061 12.6544 3.1613 12.2441C3.13786 11.8573 3.14958 11.8162 3.29611 11.6404C3.58916 11.2887 4.06977 11.2712 4.94306 11.5701C5.13062 11.6345 5.28887 11.6756 5.30645 11.6638C5.34748 11.6228 4.87859 11.3356 4.66759 11.277C4.32179 11.1774 3.85877 11.2125 3.40161 11.3649C2.37592 11.7225 1.64329 11.4646 1.57882 10.7319C1.54951 10.3803 1.63743 10.1165 1.88359 9.82347L2.0477 9.63591L2.28214 9.83519C2.41109 9.94655 2.63381 10.0931 2.78033 10.1634C3.0558 10.2924 3.7943 10.3979 3.7943 10.3041C3.78844 10.2748 3.64191 10.1458 3.46022 10.0169C3.27852 9.88794 2.97375 9.60661 2.77447 9.38389C2.43453 9.00878 2.41109 8.9912 2.1532 8.9912C1.77809 8.9912 1.36782 9.28425 1.1451 9.72383C0.998571 10.011 0.93996 10.773 1.03374 11.2067C1.20371 12.0155 2.16492 13.0471 3.1613 13.4984C3.66535 13.7269 4.53865 13.8969 5.00168 13.8617C5.13062 13.85 5.14234 13.5804 5.03098 13.1936L4.92548 12.8067L5.08373 12.9181C5.17165 12.9767 5.27715 13.0705 5.31817 13.1232C5.40023 13.2229 5.68742 13.387 5.76947 13.387C5.85739 13.3811 4.6969 12.291 4.50349 12.1855Z" fill="#BDA633"/>
<path d="M20.2697 10.8902C20.211 10.9312 19.5429 10.8374 19.3436 10.7671C19.1268 10.6909 18.9744 10.4975 18.9744 10.3041C18.9744 10.0579 19.0857 9.81176 19.1971 9.81176C19.2791 9.81176 19.2791 9.90554 19.1736 10.2631C19.1268 10.4389 19.3378 10.562 19.8594 10.6499C20.2579 10.7202 20.4103 10.8081 20.2697 10.8902Z" fill="#BDA633"/>
</svg>
